<svg width="1480" height="810" xmlns="http://www.w3.org/2000/svg" xmlns:xlink="http://www.w3.org/1999/xlink"><rect x="0" y="0" width="1480" height="810" rx="5" ry="5" style="fill:#282d35"/><circle cx="20" cy="20" r="7" style="fill:#ff5f58"/><circle cx="43" cy="20" r="7" style="fill:#ffbd2e"/><circle cx="66" cy="20" r="7" style="fill:#18c132"/><g transform="translate(20,60)"><g style="animation-duration:10.29s;animation-iteration-count:infinite;animation-name:k;animation-timing-function:steps(1,end);font-family:Monaco,Consolas,Menlo,'Bitstream Vera Sans Mono','Powerline Symbols',monospace;font-size:20px"><style>@keyframes k {23.523%{transform:translateX(-0px)}29.510%{transform:translateX(-1480px)}31.462%{transform:translateX(-2960px)}33.458%{transform:translateX(-4440px)}34.246%{transform:translateX(-5920px)}35.728%{transform:translateX(-7400px)}36.247%{transform:translateX(-8880px)}38.370%{transform:translateX(-10360px)}39.052%{transform:translateX(-11840px)}48.428%{transform:translateX(-13320px)}49.780%{transform:translateX(-14800px)}51.376%{transform:translateX(-16280px)}59.918%{transform:translateX(-17760px)}60.510%{transform:translateX(-19240px)}62.635%{transform:translateX(-20720px)}64.591%{transform:translateX(-22200px)}72.095%{transform:translateX(-23680px)}79.540%{transform:translateX(-25160px)}79.540%{transform:translateX(-26640px)}79.540%{transform:translateX(-28120px)}79.542%{transform:translateX(-29600px)}100.000%{transform:translateX(-31080px)}}.e{fill:#00cd00}.f{fill:#cdcd00}.a{fill:#e5e5e5}.b{fill:#00cdcd}.c{fill:#cd0000}.d{fill:#cd00cd}</style><g transform="translate(0)"><text x="0" y="0" class="a">i</text></g><g transform="translate(1480)"><text x="0" y="0" class="a">io</text></g><g transform="translate(2960)"><text x="0" y="0" class="a">ion</text></g><g transform="translate(4440)"><text x="0" y="0" class="a">ioni</text></g><g transform="translate(5920)"><text x="0" y="0" class="a">ionic</text></g><g transform="translate(7400)"><text x="0" y="0" class="a">ionic</text></g><g transform="translate(8880)"><text x="0" y="0" class="a">ionic</text><text x="72" y="0" class="a">-</text></g><g transform="translate(10360)"><text x="0" y="0" class="a">ionic</text><text x="72" y="0" class="a">-h</text></g><g transform="translate(11840)"><text x="0" y="0" class="a">ionic</text><text x="72" y="0" class="a">-he</text></g><g transform="translate(13320)"><text x="0" y="0" class="a">ionic</text><text x="72" y="0" class="a">-h</text></g><g transform="translate(14800)"><text x="0" y="0" class="a">ionic</text><text x="72" y="0" class="a">-</text></g><g transform="translate(16280)"><text x="0" y="0" class="a">ionic</text><text x="72" y="0" class="a">--</text></g><g transform="translate(17760)"><text x="0" y="0" class="a">ionic</text><text x="72" y="0" class="a">--h</text></g><g transform="translate(19240)"><text x="0" y="0" class="a">ionic</text><text x="72" y="0" class="a">--he</text></g><g transform="translate(20720)"><text x="0" y="0" class="a">ionic</text><text x="72" y="0" class="a">--hel</text></g><g transform="translate(22200)"><text x="0" y="0" class="a">ionic</text><text x="72" y="0" class="a">--help</text></g><g transform="translate(23680)"><text x="0" y="0" class="a">ionic</text><text x="72" y="0" class="a">--help</text></g><g transform="translate(25160)"><text x="0" y="0" class="a">ionic</text><text x="72" y="0" class="a">--help</text><text x="36" y="75" class="a">_</text><text x="204" y="75" class="a">_</text><text x="24" y="100" class="a">(_)</text><text x="72" y="100" class="a">___</text><text x="132" y="100" class="a">_</text><text x="156" y="100" class="a">__</text><text x="192" y="100" class="a">(_)</text><text x="240" y="100" class="a">___</text><text x="24" y="125" class="a">|</text><text x="48" y="125" class="a">|/</text><text x="84" y="125" class="a">_</text><text x="108" y="125" class="a">\|</text><text x="144" y="125" class="a">'_</text><text x="180" y="125" class="a">\|</text><text x="216" y="125" class="a">|/</text><text x="252" y="125" class="a">__|</text><text x="24" y="150" class="a">|</text><text x="48" y="150" class="a">|</text><text x="72" y="150" class="a">(_)</text><text x="120" y="150" class="a">|</text><text x="144" y="150" class="a">|</text><text x="168" y="150" class="a">|</text><text x="192" y="150" class="a">|</text><text x="216" y="150" class="a">|</text><text x="240" y="150" class="a">(__</text><text x="24" y="175" class="a">|_|\___/|_|</text><text x="168" y="175" class="a">|_|_|\___|</text><text x="300" y="175" class="a">CLI</text><text x="348" y="175" class="a">7.2.1</text><text x="24" y="250" class="a">Usage:</text><text x="48" y="300" class="a">$</text><text x="72" y="300" class="b">ionic</text><text x="144" y="300" class="b">&lt;command></text><text x="264" y="300" class="b">[&lt;args>]</text><text x="372" y="300" class="b">[--help]</text><text x="480" y="300" class="b">[--verbose]</text><text x="624" y="300" class="b">[--quiet]</text><text x="744" y="300" class="b">[--no-interactive]</text><text x="972" y="300" class="b">[--no-color]</text><text x="1128" y="300" class="b">[--confirm]</text><text x="1272" y="300" class="b">[options]</text><text x="24" y="350" class="a">Global</text><text x="108" y="350" class="a">Commands:</text><text x="48" y="400" class="b">completion</text><text x="180" y="400" class="a">......................</text><text x="456" y="400" class="c">(experimental)</text><text x="636" y="400" class="a">Enables</text><text x="732" y="400" class="a">tab-completion</text><text x="912" y="400" class="a">for</text><text x="960" y="400" class="a">Ionic</text><text x="1032" y="400" class="a">CLI</text><text x="1080" y="400" class="a">commands.</text><text x="48" y="425" class="b">config</text><text x="132" y="425" class="b">&lt;subcommand></text><text x="288" y="425" class="a">.............</text><text x="456" y="425" class="a">Manage</text><text x="540" y="425" class="a">CLI</text><text x="588" y="425" class="a">and</text><text x="636" y="425" class="a">project</text><text x="732" y="425" class="a">config</text><text x="816" y="425" class="a">values</text><text x="900" y="425" class="a">(subcommands:</text><text x="1068" y="425" class="b">get</text><text x="1104" y="425" class="a">,</text><text x="1128" y="425" class="b">set</text><text x="1164" y="425" class="a">,</text><text x="1188" y="425" class="b">unset</text><text x="1248" y="425" class="a">)</text><text x="48" y="450" class="b">inf</text></g><g transform="translate(26640)"><text x="0" y="0" class="a">ionic</text><text x="72" y="0" class="a">--help</text><text x="36" y="75" class="a">_</text><text x="204" y="75" class="a">_</text><text x="24" y="100" class="a">(_)</text><text x="72" y="100" class="a">___</text><text x="132" y="100" class="a">_</text><text x="156" y="100" class="a">__</text><text x="192" y="100" class="a">(_)</text><text x="240" y="100" class="a">___</text><text x="24" y="125" class="a">|</text><text x="48" y="125" class="a">|/</text><text x="84" y="125" class="a">_</text><text x="108" y="125" class="a">\|</text><text x="144" y="125" class="a">'_</text><text x="180" y="125" class="a">\|</text><text x="216" y="125" class="a">|/</text><text x="252" y="125" class="a">__|</text><text x="24" y="150" class="a">|</text><text x="48" y="150" class="a">|</text><text x="72" y="150" class="a">(_)</text><text x="120" y="150" class="a">|</text><text x="144" y="150" class="a">|</text><text x="168" y="150" class="a">|</text><text x="192" y="150" class="a">|</text><text x="216" y="150" class="a">|</text><text x="240" y="150" class="a">(__</text><text x="24" y="175" class="a">|_|\___/|_|</text><text x="168" y="175" class="a">|_|_|\___|</text><text x="300" y="175" class="a">CLI</text><text x="348" y="175" class="a">7.2.1</text><text x="24" y="250" class="a">Usage:</text><text x="48" y="300" class="a">$</text><text x="72" y="300" class="b">ionic</text><text x="144" y="300" class="b">&lt;command></text><text x="264" y="300" class="b">[&lt;args>]</text><text x="372" y="300" class="b">[--help]</text><text x="480" y="300" class="b">[--verbose]</text><text x="624" y="300" class="b">[--quiet]</text><text x="744" y="300" class="b">[--no-interactive]</text><text x="972" y="300" class="b">[--no-color]</text><text x="1128" y="300" class="b">[--confirm]</text><text x="1272" y="300" class="b">[options]</text><text x="24" y="350" class="a">Global</text><text x="108" y="350" class="a">Commands:</text><text x="48" y="400" class="b">completion</text><text x="180" y="400" class="a">......................</text><text x="456" y="400" class="c">(experimental)</text><text x="636" y="400" class="a">Enables</text><text x="732" y="400" class="a">tab-completion</text><text x="912" y="400" class="a">for</text><text x="960" y="400" class="a">Ionic</text><text x="1032" y="400" class="a">CLI</text><text x="1080" y="400" class="a">commands.</text><text x="48" y="425" class="b">config</text><text x="132" y="425" class="b">&lt;subcommand></text><text x="288" y="425" class="a">.............</text><text x="456" y="425" class="a">Manage</text><text x="540" y="425" class="a">CLI</text><text x="588" y="425" class="a">and</text><text x="636" y="425" class="a">project</text><text x="732" y="425" class="a">config</text><text x="816" y="425" class="a">values</text><text x="900" y="425" class="a">(subcommands:</text><text x="1068" y="425" class="b">get</text><text x="1104" y="425" class="a">,</text><text x="1128" y="425" class="b">set</text><text x="1164" y="425" class="a">,</text><text x="1188" y="425" class="b">unset</text><text x="1248" y="425" class="a">)</text><text x="48" y="450" class="b">info</text><text x="108" y="450" class="a">............................</text><text x="456" y="450" class="a">Print</text><text x="528" y="450" class="a">project,</text><text x="636" y="450" class="a">system,</text><text x="732" y="450" class="a">and</text><text x="780" y="450" class="a">environment</text><text x="924" y="450" class="a">information</text><text x="48" y="475" class="b">init</text><text x="108" y="475" class="a">............................</text><text x="456" y="475" class="d">(beta)</text><text x="540" y="475" class="a">Initialize</text><text x="672" y="475" class="a">existing</text><text x="780" y="475" class="a">projects</text><text x="888" y="475" class="a">with</text><text x="948" y="475" class="a">Ionic</text><text x="48" y="500" class="b">live-update</text><text x="192" y="500" class="b">&lt;subcommand></text><text x="348" y="500" class="a">........</text><text x="456" y="500" class="e">(paid)</text><text x="540" y="500" class="a">Ionic</text><text x="612" y="500" class="a">Live</text><text x="672" y="500" class="a">Updates</text><text x="768" y="500" class="a">functionality</text><text x="936" y="500" class="a">(subcommands:</text><text x="1104" y="500" class="b">manifest</text><text x="1200" y="500" class="a">)</text><text x="48" y="525" class="b">login</text><text x="120" y="525" class="a">........</text></g><g transform="translate(28120)"><text x="0" y="0" class="a">ionic</text><text x="72" y="0" class="a">--help</text><text x="36" y="75" class="a">_</text><text x="204" y="75" class="a">_</text><text x="24" y="100" class="a">(_)</text><text x="72" y="100" class="a">___</text><text x="132" y="100" class="a">_</text><text x="156" y="100" class="a">__</text><text x="192" y="100" class="a">(_)</text><text x="240" y="100" class="a">___</text><text x="24" y="125" class="a">|</text><text x="48" y="125" class="a">|/</text><text x="84" y="125" class="a">_</text><text x="108" y="125" class="a">\|</text><text x="144" y="125" class="a">'_</text><text x="180" y="125" class="a">\|</text><text x="216" y="125" class="a">|/</text><text x="252" y="125" class="a">__|</text><text x="24" y="150" class="a">|</text><text x="48" y="150" class="a">|</text><text x="72" y="150" class="a">(_)</text><text x="120" y="150" class="a">|</text><text x="144" y="150" class="a">|</text><text x="168" y="150" class="a">|</text><text x="192" y="150" class="a">|</text><text x="216" y="150" class="a">|</text><text x="240" y="150" class="a">(__</text><text x="24" y="175" class="a">|_|\___/|_|</text><text x="168" y="175" class="a">|_|_|\___|</text><text x="300" y="175" class="a">CLI</text><text x="348" y="175" class="a">7.2.1</text><text x="24" y="250" class="a">Usage:</text><text x="48" y="300" class="a">$</text><text x="72" y="300" class="b">ionic</text><text x="144" y="300" class="b">&lt;command></text><text x="264" y="300" class="b">[&lt;args>]</text><text x="372" y="300" class="b">[--help]</text><text x="480" y="300" class="b">[--verbose]</text><text x="624" y="300" class="b">[--quiet]</text><text x="744" y="300" class="b">[--no-interactive]</text><text x="972" y="300" class="b">[--no-color]</text><text x="1128" y="300" class="b">[--confirm]</text><text x="1272" y="300" class="b">[options]</text><text x="24" y="350" class="a">Global</text><text x="108" y="350" class="a">Commands:</text><text x="48" y="400" class="b">completion</text><text x="180" y="400" class="a">......................</text><text x="456" y="400" class="c">(experimental)</text><text x="636" y="400" class="a">Enables</text><text x="732" y="400" class="a">tab-completion</text><text x="912" y="400" class="a">for</text><text x="960" y="400" class="a">Ionic</text><text x="1032" y="400" class="a">CLI</text><text x="1080" y="400" class="a">commands.</text><text x="48" y="425" class="b">config</text><text x="132" y="425" class="b">&lt;subcommand></text><text x="288" y="425" class="a">.............</text><text x="456" y="425" class="a">Manage</text><text x="540" y="425" class="a">CLI</text><text x="588" y="425" class="a">and</text><text x="636" y="425" class="a">project</text><text x="732" y="425" class="a">config</text><text x="816" y="425" class="a">values</text><text x="900" y="425" class="a">(subcommands:</text><text x="1068" y="425" class="b">get</text><text x="1104" y="425" class="a">,</text><text x="1128" y="425" class="b">set</text><text x="1164" y="425" class="a">,</text><text x="1188" y="425" class="b">unset</text><text x="1248" y="425" class="a">)</text><text x="48" y="450" class="b">info</text><text x="108" y="450" class="a">............................</text><text x="456" y="450" class="a">Print</text><text x="528" y="450" class="a">project,</text><text x="636" y="450" class="a">system,</text><text x="732" y="450" class="a">and</text><text x="780" y="450" class="a">environment</text><text x="924" y="450" class="a">information</text><text x="48" y="475" class="b">init</text><text x="108" y="475" class="a">............................</text><text x="456" y="475" class="d">(beta)</text><text x="540" y="475" class="a">Initialize</text><text x="672" y="475" class="a">existing</text><text x="780" y="475" class="a">projects</text><text x="888" y="475" class="a">with</text><text x="948" y="475" class="a">Ionic</text><text x="48" y="500" class="b">live-update</text><text x="192" y="500" class="b">&lt;subcommand></text><text x="348" y="500" class="a">........</text><text x="456" y="500" class="e">(paid)</text><text x="540" y="500" class="a">Ionic</text><text x="612" y="500" class="a">Live</text><text x="672" y="500" class="a">Updates</text><text x="768" y="500" class="a">functionality</text><text x="936" y="500" class="a">(subcommands:</text><text x="1104" y="500" class="b">manifest</text><text x="1200" y="500" class="a">)</text><text x="48" y="525" class="b">login</text><text x="120" y="525" class="a">...........................</text><text x="456" y="525" class="a">Log</text><text x="504" y="525" class="a">in</text><text x="540" y="525" class="a">to</text><text x="576" y="525" class="a">Ionic</text><text x="48" y="550" class="b">logout</text><text x="132" y="550" class="a">..........................</text><text x="456" y="550" class="a">Log</text><text x="504" y="550" class="a">out</text><text x="552" y="550" class="a">of</text><text x="588" y="550" class="a">Ionic</text><text x="48" y="575" class="b">signup</text><text x="132" y="575" class="a">..........................</text><text x="456" y="575" class="a">Create</text><text x="540" y="575" class="a">an</text><text x="576" y="575" class="a">Ionic</text><text x="648" y="575" class="a">account</text><text x="48" y="600" class="b">ssh</text><text x="96" y="600" class="b">&lt;subcommand></text><text x="252" y="600" class="a">................</text><text x="456" y="600" class="f">(deprecated)</text></g><g transform="translate(29600)"><text x="36" y="0" class="a">_</text><text x="204" y="0" class="a">_</text><text x="24" y="25" class="a">(_)</text><text x="72" y="25" class="a">___</text><text x="132" y="25" class="a">_</text><text x="156" y="25" class="a">__</text><text x="192" y="25" class="a">(_)</text><text x="240" y="25" class="a">___</text><text x="24" y="50" class="a">|</text><text x="48" y="50" class="a">|/</text><text x="84" y="50" class="a">_</text><text x="108" y="50" class="a">\|</text><text x="144" y="50" class="a">'_</text><text x="180" y="50" class="a">\|</text><text x="216" y="50" class="a">|/</text><text x="252" y="50" class="a">__|</text><text x="24" y="75" class="a">|</text><text x="48" y="75" class="a">|</text><text x="72" y="75" class="a">(_)</text><text x="120" y="75" class="a">|</text><text x="144" y="75" class="a">|</text><text x="168" y="75" class="a">|</text><text x="192" y="75" class="a">|</text><text x="216" y="75" class="a">|</text><text x="240" y="75" class="a">(__</text><text x="24" y="100" class="a">|_|\___/|_|</text><text x="168" y="100" class="a">|_|_|\___|</text><text x="300" y="100" class="a">CLI</text><text x="348" y="100" class="a">7.2.1</text><text x="24" y="175" class="a">Usage:</text><text x="48" y="225" class="a">$</text><text x="72" y="225" class="b">ionic</text><text x="144" y="225" class="b">&lt;command></text><text x="264" y="225" class="b">[&lt;args>]</text><text x="372" y="225" class="b">[--help]</text><text x="480" y="225" class="b">[--verbose]</text><text x="624" y="225" class="b">[--quiet]</text><text x="744" y="225" class="b">[--no-interactive]</text><text x="972" y="225" class="b">[--no-color]</text><text x="1128" y="225" class="b">[--confirm]</text><text x="1272" y="225" class="b">[options]</text><text x="24" y="275" class="a">Global</text><text x="108" y="275" class="a">Commands:</text><text x="48" y="325" class="b">completion</text><text x="180" y="325" class="a">......................</text><text x="456" y="325" class="c">(experimental)</text><text x="636" y="325" class="a">Enables</text><text x="732" y="325" class="a">tab-completion</text><text x="912" y="325" class="a">for</text><text x="960" y="325" class="a">Ionic</text><text x="1032" y="325" class="a">CLI</text><text x="1080" y="325" class="a">commands.</text><text x="48" y="350" class="b">config</text><text x="132" y="350" class="b">&lt;subcommand></text><text x="288" y="350" class="a">.............</text><text x="456" y="350" class="a">Manage</text><text x="540" y="350" class="a">CLI</text><text x="588" y="350" class="a">and</text><text x="636" y="350" class="a">project</text><text x="732" y="350" class="a">config</text><text x="816" y="350" class="a">values</text><text x="900" y="350" class="a">(subcommands:</text><text x="1068" y="350" class="b">get</text><text x="1104" y="350" class="a">,</text><text x="1128" y="350" class="b">set</text><text x="1164" y="350" class="a">,</text><text x="1188" y="350" class="b">unset</text><text x="1248" y="350" class="a">)</text><text x="48" y="375" class="b">info</text><text x="108" y="375" class="a">............................</text><text x="456" y="375" class="a">Print</text><text x="528" y="375" class="a">project,</text><text x="636" y="375" class="a">system,</text><text x="732" y="375" class="a">and</text><text x="780" y="375" class="a">environment</text><text x="924" y="375" class="a">information</text><text x="48" y="400" class="b">init</text><text x="108" y="400" class="a">............................</text><text x="456" y="400" class="d">(beta)</text><text x="540" y="400" class="a">Initialize</text><text x="672" y="400" class="a">existing</text><text x="780" y="400" class="a">projects</text><text x="888" y="400" class="a">with</text><text x="948" y="400" class="a">Ionic</text><text x="48" y="425" class="b">live-update</text><text x="192" y="425" class="b">&lt;subcommand></text><text x="348" y="425" class="a">........</text><text x="456" y="425" class="e">(paid)</text><text x="540" y="425" class="a">Ionic</text><text x="612" y="425" class="a">Live</text><text x="672" y="425" class="a">Updates</text><text x="768" y="425" class="a">functionality</text><text x="936" y="425" class="a">(subcommands:</text><text x="1104" y="425" class="b">manifest</text><text x="1200" y="425" class="a">)</text><text x="48" y="450" class="b">login</text><text x="120" y="450" class="a">...........................</text><text x="456" y="450" class="a">Log</text><text x="504" y="450" class="a">in</text><text x="540" y="450" class="a">to</text><text x="576" y="450" class="a">Ionic</text><text x="48" y="475" class="b">logout</text><text x="132" y="475" class="a">..........................</text><text x="456" y="475" class="a">Log</text><text x="504" y="475" class="a">out</text><text x="552" y="475" class="a">of</text><text x="588" y="475" class="a">Ionic</text><text x="48" y="500" class="b">signup</text><text x="132" y="500" class="a">..........................</text><text x="456" y="500" class="a">Create</text><text x="540" y="500" class="a">an</text><text x="576" y="500" class="a">Ionic</text><text x="648" y="500" class="a">account</text><text x="48" y="525" class="b">ssh</text><text x="96" y="525" class="b">&lt;subcommand></text><text x="252" y="525" class="a">................</text><text x="456" y="525" class="f">(deprecated)</text><text x="612" y="525" class="a">Commands</text><text x="720" y="525" class="a">for</text><text x="768" y="525" class="a">configuring</text><text x="912" y="525" class="a">SSH</text><text x="960" y="525" class="a">keys</text><text x="1020" y="525" class="a">(subcommands:</text><text x="1188" y="525" class="b">add</text><text x="1224" y="525" class="a">,</text><text x="1248" y="525" class="b">delete</text><text x="1320" y="525" class="a">,</text><text x="456" y="550" class="b">generate</text><text x="552" y="550" class="a">,</text><text x="576" y="550" class="b">list</text><text x="624" y="550" class="a">,</text><text x="648" y="550" class="b">setup</text><text x="708" y="550" class="a">,</text><text x="732" y="550" class="b">use</text><text x="768" y="550" class="a">)</text><text x="48" y="575" class="b">start</text><text x="120" y="575" class="a">...........................</text><text x="456" y="575" class="a">Create</text><text x="540" y="575" class="a">a</text><text x="564" y="575" class="a">new</text><text x="612" y="575" class="a">project</text><text x="24" y="625" class="a">Project</text><text x="120" y="625" class="a">Commands:</text><text x="48" y="675" class="a">You</text><text x="96" y="675" class="a">are</text><text x="144" y="675" class="a">not</text><text x="192" y="675" class="a">in</text><text x="228" y="675" class="a">a</text><text x="252" y="675" class="a">project</text><text x="348" y="675" class="a">directory.</text></g><g transform="translate(31080)"><text x="24" y="0" class="a">(_)</text><text x="72" y="0" class="a">___</text><text x="132" y="0" class="a">_</text><text x="156" y="0" class="a">__</text><text x="192" y="0" class="a">(_)</text><text x="240" y="0" class="a">___</text><text x="24" y="25" class="a">|</text><text x="48" y="25" class="a">|/</text><text x="84" y="25" class="a">_</text><text x="108" y="25" class="a">\|</text><text x="144" y="25" class="a">'_</text><text x="180" y="25" class="a">\|</text><text x="216" y="25" class="a">|/</text><text x="252" y="25" class="a">__|</text><text x="24" y="50" class="a">|</text><text x="48" y="50" class="a">|</text><text x="72" y="50" class="a">(_)</text><text x="120" y="50" class="a">|</text><text x="144" y="50" class="a">|</text><text x="168" y="50" class="a">|</text><text x="192" y="50" class="a">|</text><text x="216" y="50" class="a">|</text><text x="240" y="50" class="a">(__</text><text x="24" y="75" class="a">|_|\___/|_|</text><text x="168" y="75" class="a">|_|_|\___|</text><text x="300" y="75" class="a">CLI</text><text x="348" y="75" class="a">7.2.1</text><text x="24" y="150" class="a">Usage:</text><text x="48" y="200" class="a">$</text><text x="72" y="200" class="b">ionic</text><text x="144" y="200" class="b">&lt;command></text><text x="264" y="200" class="b">[&lt;args>]</text><text x="372" y="200" class="b">[--help]</text><text x="480" y="200" class="b">[--verbose]</text><text x="624" y="200" class="b">[--quiet]</text><text x="744" y="200" class="b">[--no-interactive]</text><text x="972" y="200" class="b">[--no-color]</text><text x="1128" y="200" class="b">[--confirm]</text><text x="1272" y="200" class="b">[options]</text><text x="24" y="250" class="a">Global</text><text x="108" y="250" class="a">Commands:</text><text x="48" y="300" class="b">completion</text><text x="180" y="300" class="a">......................</text><text x="456" y="300" class="c">(experimental)</text><text x="636" y="300" class="a">Enables</text><text x="732" y="300" class="a">tab-completion</text><text x="912" y="300" class="a">for</text><text x="960" y="300" class="a">Ionic</text><text x="1032" y="300" class="a">CLI</text><text x="1080" y="300" class="a">commands.</text><text x="48" y="325" class="b">config</text><text x="132" y="325" class="b">&lt;subcommand></text><text x="288" y="325" class="a">.............</text><text x="456" y="325" class="a">Manage</text><text x="540" y="325" class="a">CLI</text><text x="588" y="325" class="a">and</text><text x="636" y="325" class="a">project</text><text x="732" y="325" class="a">config</text><text x="816" y="325" class="a">values</text><text x="900" y="325" class="a">(subcommands:</text><text x="1068" y="325" class="b">get</text><text x="1104" y="325" class="a">,</text><text x="1128" y="325" class="b">set</text><text x="1164" y="325" class="a">,</text><text x="1188" y="325" class="b">unset</text><text x="1248" y="325" class="a">)</text><text x="48" y="350" class="b">info</text><text x="108" y="350" class="a">............................</text><text x="456" y="350" class="a">Print</text><text x="528" y="350" class="a">project,</text><text x="636" y="350" class="a">system,</text><text x="732" y="350" class="a">and</text><text x="780" y="350" class="a">environment</text><text x="924" y="350" class="a">information</text><text x="48" y="375" class="b">init</text><text x="108" y="375" class="a">............................</text><text x="456" y="375" class="d">(beta)</text><text x="540" y="375" class="a">Initialize</text><text x="672" y="375" class="a">existing</text><text x="780" y="375" class="a">projects</text><text x="888" y="375" class="a">with</text><text x="948" y="375" class="a">Ionic</text><text x="48" y="400" class="b">live-update</text><text x="192" y="400" class="b">&lt;subcommand></text><text x="348" y="400" class="a">........</text><text x="456" y="400" class="e">(paid)</text><text x="540" y="400" class="a">Ionic</text><text x="612" y="400" class="a">Live</text><text x="672" y="400" class="a">Updates</text><text x="768" y="400" class="a">functionality</text><text x="936" y="400" class="a">(subcommands:</text><text x="1104" y="400" class="b">manifest</text><text x="1200" y="400" class="a">)</text><text x="48" y="425" class="b">login</text><text x="120" y="425" class="a">...........................</text><text x="456" y="425" class="a">Log</text><text x="504" y="425" class="a">in</text><text x="540" y="425" class="a">to</text><text x="576" y="425" class="a">Ionic</text><text x="48" y="450" class="b">logout</text><text x="132" y="450" class="a">..........................</text><text x="456" y="450" class="a">Log</text><text x="504" y="450" class="a">out</text><text x="552" y="450" class="a">of</text><text x="588" y="450" class="a">Ionic</text><text x="48" y="475" class="b">signup</text><text x="132" y="475" class="a">..........................</text><text x="456" y="475" class="a">Create</text><text x="540" y="475" class="a">an</text><text x="576" y="475" class="a">Ionic</text><text x="648" y="475" class="a">account</text><text x="48" y="500" class="b">ssh</text><text x="96" y="500" class="b">&lt;subcommand></text><text x="252" y="500" class="a">................</text><text x="456" y="500" class="f">(deprecated)</text><text x="612" y="500" class="a">Commands</text><text x="720" y="500" class="a">for</text><text x="768" y="500" class="a">configuring</text><text x="912" y="500" class="a">SSH</text><text x="960" y="500" class="a">keys</text><text x="1020" y="500" class="a">(subcommands:</text><text x="1188" y="500" class="b">add</text><text x="1224" y="500" class="a">,</text><text x="1248" y="500" class="b">delete</text><text x="1320" y="500" class="a">,</text><text x="456" y="525" class="b">generate</text><text x="552" y="525" class="a">,</text><text x="576" y="525" class="b">list</text><text x="624" y="525" class="a">,</text><text x="648" y="525" class="b">setup</text><text x="708" y="525" class="a">,</text><text x="732" y="525" class="b">use</text><text x="768" y="525" class="a">)</text><text x="48" y="550" class="b">start</text><text x="120" y="550" class="a">...........................</text><text x="456" y="550" class="a">Create</text><text x="540" y="550" class="a">a</text><text x="564" y="550" class="a">new</text><text x="612" y="550" class="a">project</text><text x="24" y="600" class="a">Project</text><text x="120" y="600" class="a">Commands:</text><text x="48" y="650" class="a">You</text><text x="96" y="650" class="a">are</text><text x="144" y="650" class="a">not</text><text x="192" y="650" class="a">in</text><text x="228" y="650" class="a">a</text><text x="252" y="650" class="a">project</text><text x="348" y="650" class="a">directory.</text></g></g></g></svg>