<svg width="1480" height="810" xmlns="http://www.w3.org/2000/svg" xmlns:xlink="http://www.w3.org/1999/xlink"><rect x="0" y="0" width="1480" height="810" rx="5" ry="5" style="fill:#282d35"/><circle cx="20" cy="20" r="7" style="fill:#ff5f58"/><circle cx="43" cy="20" r="7" style="fill:#ffbd2e"/><circle cx="66" cy="20" r="7" style="fill:#18c132"/><g transform="translate(20,60)"><g style="animation-duration:12.10s;animation-iteration-count:infinite;animation-name:k;animation-timing-function:steps(1,end);font-family:Monaco,Consolas,Menlo,'Bitstream Vera Sans Mono','Powerline Symbols',monospace;font-size:20px"><style>@keyframes k {4.949%{transform:translateX(-0px)}6.128%{transform:translateX(-1480px)}7.438%{transform:translateX(-2960px)}8.763%{transform:translateX(-4440px)}9.149%{transform:translateX(-5920px)}15.198%{transform:translateX(-7400px)}22.567%{transform:translateX(-8880px)}23.775%{transform:translateX(-10360px)}24.692%{transform:translateX(-11840px)}43.399%{transform:translateX(-13320px)}44.440%{transform:translateX(-14800px)}47.831%{transform:translateX(-16280px)}53.949%{transform:translateX(-17760px)}54.820%{transform:translateX(-19240px)}55.269%{transform:translateX(-20720px)}62.054%{transform:translateX(-22200px)}62.884%{transform:translateX(-23680px)}67.382%{transform:translateX(-25160px)}68.647%{transform:translateX(-26640px)}69.738%{transform:translateX(-28120px)}73.056%{transform:translateX(-29600px)}73.650%{transform:translateX(-31080px)}74.803%{transform:translateX(-32560px)}76.201%{transform:translateX(-34040px)}81.040%{transform:translateX(-35520px)}83.932%{transform:translateX(-37000px)}100.000%{transform:translateX(-38480px)}}.b{fill:#00ffff}.c{fill:#00cdcd}.a{fill:#e5e5e5}</style><g transform="translate(0)"><text x="0" y="0" class="a">i</text></g><g transform="translate(1480)"><text x="0" y="0" class="a">io</text></g><g transform="translate(2960)"><text x="0" y="0" class="a">ion</text></g><g transform="translate(4440)"><text x="0" y="0" class="a">ioni</text></g><g transform="translate(5920)"><text x="0" y="0" class="a">ionic</text></g><g transform="translate(7400)"><text x="0" y="0" class="a">ionic</text></g><g transform="translate(8880)"><text x="0" y="0" class="a">ionic</text><text x="72" y="0" class="a">c</text></g><g transform="translate(10360)"><text x="0" y="0" class="a">ionic</text><text x="72" y="0" class="a">co</text></g><g transform="translate(11840)"><text x="0" y="0" class="a">ionic</text><text x="72" y="0" class="a">cor</text></g><g transform="translate(13320)"><text x="0" y="0" class="a">ionic</text><text x="72" y="0" class="a">cord</text></g><g transform="translate(14800)"><text x="0" y="0" class="a">ionic</text><text x="72" y="0" class="a">cordo</text></g><g transform="translate(16280)"><text x="0" y="0" class="a">ionic</text><text x="72" y="0" class="a">cordoc</text></g><g transform="translate(17760)"><text x="0" y="0" class="a">ionic</text><text x="72" y="0" class="a">cordo</text></g><g transform="translate(19240)"><text x="0" y="0" class="a">ionic</text><text x="72" y="0" class="a">cordov</text></g><g transform="translate(20720)"><text x="0" y="0" class="a">ionic</text><text x="72" y="0" class="a">cordova</text></g><g transform="translate(22200)"><text x="0" y="0" class="a">ionic</text><text x="72" y="0" class="a">cordova</text></g><g transform="translate(23680)"><text x="0" y="0" class="a">ionic</text><text x="72" y="0" class="a">cordova</text></g><g transform="translate(25160)"><text x="0" y="0" class="a">ionic</text><text x="72" y="0" class="a">cordova</text></g><g transform="translate(26640)"><text x="0" y="0" class="a">ionic</text><text x="72" y="0" class="a">cordova</text><text x="168" y="0" class="a">-</text></g><g transform="translate(28120)"><text x="0" y="0" class="a">ionic</text><text x="72" y="0" class="a">cordova</text><text x="168" y="0" class="a">--</text></g><g transform="translate(29600)"><text x="0" y="0" class="a">ionic</text><text x="72" y="0" class="a">cordova</text><text x="168" y="0" class="a">--h</text></g><g transform="translate(31080)"><text x="0" y="0" class="a">ionic</text><text x="72" y="0" class="a">cordova</text><text x="168" y="0" class="a">--he</text></g><g transform="translate(32560)"><text x="0" y="0" class="a">ionic</text><text x="72" y="0" class="a">cordova</text><text x="168" y="0" class="a">--hel</text></g><g transform="translate(34040)"><text x="0" y="0" class="a">ionic</text><text x="72" y="0" class="a">cordova</text><text x="168" y="0" class="a">--help</text></g><g transform="translate(35520)"><text x="0" y="0" class="a">ionic</text><text x="72" y="0" class="a">cordova</text><text x="168" y="0" class="a">--help</text></g><g transform="translate(37000)"><text x="0" y="0" class="a">ionic</text><text x="72" y="0" class="a">cordova</text><text x="168" y="0" class="a">--help</text><text x="24" y="50" class="b">ionic</text><text x="96" y="50" class="b">cordova</text><text x="192" y="50" class="a">-</text><text x="216" y="50" class="a">Cordova</text><text x="312" y="50" class="a">functionality</text><text x="48" y="100" class="a">These</text><text x="120" y="100" class="a">commands</text><text x="228" y="100" class="a">integrate</text><text x="348" y="100" class="a">with</text><text x="408" y="100" class="a">Apache</text><text x="492" y="100" class="a">Cordova,</text><text x="600" y="100" class="a">which</text><text x="672" y="100" class="a">brings</text><text x="756" y="100" class="a">native</text><text x="840" y="100" class="a">functionality</text><text x="1008" y="100" class="a">to</text><text x="1044" y="100" class="a">your</text><text x="1104" y="100" class="a">app.</text><text x="48" y="150" class="a">Cordova</text><text x="144" y="150" class="a">Reference</text><text x="264" y="150" class="a">documentation:</text><text x="48" y="175" class="a">-</text><text x="72" y="175" class="a">Overview:</text><text x="192" y="175" class="a">https://cordova.apache.org/docs/en/latest/guide/overview/index.html</text><text x="48" y="200" class="a">-</text><text x="72" y="200" class="a">CLI</text><text x="120" y="200" class="a">documentation:</text><text x="300" y="200" class="a">https://cordova.apache.org/docs/en/latest/reference/cordova-cli/</text><text x="24" y="250" class="a">Usage:</text><text x="48" y="300" class="a">$</text><text x="72" y="300" class="c">ionic</text><text x="144" y="300" class="c">cordova</text><text x="240" y="300" class="c">&lt;command></text><text x="360" y="300" class="c">[&lt;args>]</text><text x="468" y="300" class="c">[--help]</text><text x="576" y="300" class="c">[--verbose]</text><text x="720" y="300" class="c">[--quiet]</text><text x="840" y="300" class="c">[--no-interactive]</text><text x="1068" y="300" class="c">[--no-color]</text><text x="1224" y="300" class="c">[--confirm]</text><text x="1368" y="300" class="c">[optio</text><text x="0" y="325" class="c">ns]</text><text x="24" y="375" class="a">Project</text><text x="120" y="375" class="a">Commands:</text><text x="48" y="425" class="a">You</text><text x="96" y="425" class="a">are</text><text x="144" y="425" class="a">not</text><text x="192" y="425" class="a">in</text><text x="228" y="425" class="a">a</text><text x="252" y="425" class="a">project</text><text x="348" y="425" class="a">directory.</text></g><g transform="translate(38480)"><text x="0" y="0" class="a">ionic</text><text x="72" y="0" class="a">cordova</text><text x="168" y="0" class="a">--help</text><text x="24" y="50" class="b">ionic</text><text x="96" y="50" class="b">cordova</text><text x="192" y="50" class="a">-</text><text x="216" y="50" class="a">Cordova</text><text x="312" y="50" class="a">functionality</text><text x="48" y="100" class="a">These</text><text x="120" y="100" class="a">commands</text><text x="228" y="100" class="a">integrate</text><text x="348" y="100" class="a">with</text><text x="408" y="100" class="a">Apache</text><text x="492" y="100" class="a">Cordova,</text><text x="600" y="100" class="a">which</text><text x="672" y="100" class="a">brings</text><text x="756" y="100" class="a">native</text><text x="840" y="100" class="a">functionality</text><text x="1008" y="100" class="a">to</text><text x="1044" y="100" class="a">your</text><text x="1104" y="100" class="a">app.</text><text x="48" y="150" class="a">Cordova</text><text x="144" y="150" class="a">Reference</text><text x="264" y="150" class="a">documentation:</text><text x="48" y="175" class="a">-</text><text x="72" y="175" class="a">Overview:</text><text x="192" y="175" class="a">https://cordova.apache.org/docs/en/latest/guide/overview/index.html</text><text x="48" y="200" class="a">-</text><text x="72" y="200" class="a">CLI</text><text x="120" y="200" class="a">documentation:</text><text x="300" y="200" class="a">https://cordova.apache.org/docs/en/latest/reference/cordova-cli/</text><text x="24" y="250" class="a">Usage:</text><text x="48" y="300" class="a">$</text><text x="72" y="300" class="c">ionic</text><text x="144" y="300" class="c">cordova</text><text x="240" y="300" class="c">&lt;command></text><text x="360" y="300" class="c">[&lt;args>]</text><text x="468" y="300" class="c">[--help]</text><text x="576" y="300" class="c">[--verbose]</text><text x="720" y="300" class="c">[--quiet]</text><text x="840" y="300" class="c">[--no-interactive]</text><text x="1068" y="300" class="c">[--no-color]</text><text x="1224" y="300" class="c">[--confirm]</text><text x="1368" y="300" class="c">[optio</text><text x="0" y="325" class="c">ns]</text><text x="24" y="375" class="a">Project</text><text x="120" y="375" class="a">Commands:</text><text x="48" y="425" class="a">You</text><text x="96" y="425" class="a">are</text><text x="144" y="425" class="a">not</text><text x="192" y="425" class="a">in</text><text x="228" y="425" class="a">a</text><text x="252" y="425" class="a">project</text><text x="348" y="425" class="a">directory.</text></g></g></g></svg>